<svg xmlns="http://www.w3.org/2000/svg" xmlns:xlink="http://www.w3.org/1999/xlink" width="500" zoomAndPan="magnify" viewBox="0 0 375 374.999991" height="500" preserveAspectRatio="xMidYMid meet" version="1.0"><defs><g/></defs><g fill="#f8f7f0" fill-opacity="1"><g transform="translate(48.586492, 216.791407)"><g><path d="M 6.296875 -0.15625 L 6.296875 -79.203125 L 24.90625 -79.046875 L 24.90625 -0.15625 Z M 38.546875 -0.15625 C 38.546875 -0.15625 39.046875 -0.300781 40.046875 -0.59375 C 41.046875 -0.894531 42.195312 -1.671875 43.5 -2.921875 C 44.800781 -4.171875 45.953125 -6.144531 46.953125 -8.84375 C 47.953125 -11.550781 48.453125 -15.253906 48.453125 -19.953125 C 48.453125 -24.453125 47.875 -28 46.71875 -30.59375 C 45.570312 -33.195312 44.222656 -35.125 42.671875 -36.375 C 41.117188 -37.625 39.664062 -38.445312 38.3125 -38.84375 C 36.96875 -39.25 36.144531 -39.5 35.84375 -39.59375 L 35.546875 -39.59375 C 35.546875 -39.59375 36.046875 -39.742188 37.046875 -40.046875 C 38.046875 -40.347656 39.21875 -41.125 40.5625 -42.375 C 41.914062 -43.625 43.09375 -45.597656 44.09375 -48.296875 C 45.09375 -50.992188 45.59375 -54.742188 45.59375 -59.546875 C 45.59375 -64.242188 44.941406 -67.914062 43.640625 -70.5625 C 42.347656 -73.21875 40.847656 -75.144531 39.140625 -76.34375 C 37.441406 -77.550781 35.941406 -78.300781 34.640625 -78.59375 C 33.347656 -78.894531 32.703125 -79.046875 32.703125 -79.046875 C 32.703125 -79.046875 33.675781 -78.96875 35.625 -78.8125 C 37.570312 -78.664062 39.96875 -78.289062 42.8125 -77.6875 C 45.664062 -77.09375 48.492188 -76.117188 51.296875 -74.765625 C 54.097656 -73.421875 56.472656 -71.5 58.421875 -69 C 60.367188 -66.5 61.34375 -63.25 61.34375 -59.25 C 61.34375 -54.550781 60.316406 -50.875 58.265625 -48.21875 C 56.222656 -45.570312 53.722656 -43.625 50.765625 -42.375 C 47.816406 -41.125 45.019531 -40.347656 42.375 -40.046875 C 39.726562 -39.742188 37.800781 -39.59375 36.59375 -39.59375 C 37.59375 -39.5 39.164062 -39.328125 41.3125 -39.078125 C 43.46875 -38.828125 45.84375 -38.328125 48.4375 -37.578125 C 51.039062 -36.828125 53.539062 -35.722656 55.9375 -34.265625 C 58.34375 -32.816406 60.320312 -30.914062 61.875 -28.5625 C 63.425781 -26.21875 64.203125 -23.296875 64.203125 -19.796875 C 64.203125 -15.492188 63.328125 -12.039062 61.578125 -9.4375 C 59.828125 -6.84375 57.703125 -4.894531 55.203125 -3.59375 C 52.703125 -2.300781 50.175781 -1.40625 47.625 -0.90625 C 45.070312 -0.40625 42.921875 -0.15625 41.171875 -0.15625 C 39.421875 -0.15625 38.546875 -0.15625 38.546875 -0.15625 Z M 38.546875 -0.15625 "/></g></g></g><g fill="#f8f7f0" fill-opacity="1"><g transform="translate(113.236508, 216.791407)"><g><path d="M 43.203125 0 L 21.296875 -53.546875 L 31.34375 -80.84375 L 65.09375 0 Z M 43.203125 0 "/></g></g></g><g fill="#f8f7f0" fill-opacity="1"><g transform="translate(175.18652, 216.791407)"><g><path d="M 6.296875 0 L 6.296875 -79.046875 L 24.90625 -79.046875 L 24.90625 -0.15625 Z M 39.296875 -0.15625 C 39.296875 -0.15625 40.492188 -0.550781 42.890625 -1.34375 C 45.296875 -2.144531 47.898438 -4.097656 50.703125 -7.203125 C 53.597656 -10.203125 55.492188 -12.828125 56.390625 -15.078125 C 57.296875 -17.328125 57.75 -18.453125 57.75 -18.453125 L 57.75 -0.15625 Z M 39.296875 -0.15625 "/></g></g></g><g fill="#f8f7f0" fill-opacity="1"><g transform="translate(233.236534, 216.791407)"><g><path d="M 6.296875 0 L 6.296875 -79.046875 L 24.90625 -79.046875 L 24.90625 0 Z M 6.296875 0 "/></g></g></g><g fill="#f8f7f0" fill-opacity="1"><g transform="translate(258.436537, 216.791407)"><g><path d="M 43.203125 0 L 21.296875 -53.546875 L 31.34375 -80.84375 L 65.09375 0 Z M 43.203125 0 "/></g></g></g></svg>